# xmcd
#
# Track frame offsets:
#	150
#	9831
#	20124
#	30236
#	42060
#	53027
#	63803
#	73576
#	83489
#	94790
#	104909
#	114997
#	125183
#	134135
#	145911
#	155212
#	166810
#	175999
#
# Disc length: 2455 seconds
#
# Revision: 0
# Processed by: cddbd v1.5.1PL0 Copyright (c) Steve Scherf et al.
# Submitted via: dBpowerAMP V4.0
#
DISCID=f4099512
DTITLE=The Wilburn Brothers - Greatest Hits
DYEAR=1900
DGENRE=Country
TTITLE0=Wanna, Wanna, Wanna
TTITLE1=I'm So In Love With You
TTITLE2=Go Away With Me
TTITLE3=Which One Is To Blame
TTITLE4=Somebody's Back In Town
TTITLE5=Woman's Intuition
TTITLE6=Blue Blue Day
TTITLE7=Trouble's Back In Town
TTITLE8=The Sound of Your Footsteps
TTITLE9=Roll Muddy River
TTITLE10=Tell Her So
TTITLE11=I'm Gonna Tie One On Tonight
TTITLE12=It's Another World
TTITLE13=Someone Before Me
TTITLE14=I Can't Keep Away From You
TTITLE15=Hurt Her Once For Me
TTITLE16=Roarin' Again
TTITLE17=Goody, Goody Gumdrop
EXTD=
EXTT0=
EXTT1=
EXTT2=
EXTT3=
EXTT4=
EXTT5=
EXTT6=
EXTT7=
EXTT8=
EXTT9=
EXTT10=
EXTT11=
EXTT12=
EXTT13=
EXTT14=
EXTT15=
EXTT16=
EXTT17=
PLAYORDER=
